<svg width="691" height="676" viewBox="0 0 691 676" fill="none" xmlns="http://www.w3.org/2000/svg">
<path d="M345.5 676C536.317 676 691 585.948 691 474.794C691 363.641 536.317 273.588 345.5 273.588C154.683 273.588 0 363.665 0 474.794C0 585.923 154.683 676 345.5 676Z" fill="#F5F5F5"/>
<path d="M540.357 560.843C595.805 560.843 640.737 534.898 640.737 502.893C640.737 470.888 595.756 444.943 540.357 444.943C484.959 444.943 439.941 470.949 439.941 502.893C439.941 534.837 484.873 560.843 540.357 560.843Z" fill="#E6E6E6"/>
<path d="M345.5 579.9C408.103 579.9 458.853 550.608 458.853 514.466C458.853 478.323 408.103 449.044 345.5 449.044C282.896 449.044 232.146 478.336 232.146 514.466C232.146 550.596 282.896 579.9 345.5 579.9Z" fill="#E6E6E6"/>
<path d="M147.259 560.843C202.695 560.843 247.639 534.898 247.639 502.893C247.639 470.888 202.719 444.943 147.259 444.943C91.7997 444.943 46.916 470.949 46.916 502.893C46.916 534.837 91.8484 560.843 147.259 560.843Z" fill="#E6E6E6"/>
<path d="M588.247 161.425C578.511 151.397 562.385 128.045 562.385 128.045L552.43 93.6056C552.187 93.703 557.505 93.7152 559.111 93.6056C569.87 94.3358 573.034 95.1877 579.728 102.574C585.034 108.379 604.677 138.924 611.735 148.245L631.049 121.571C635.528 114.792 634.798 107.223 637.135 101.674C639.471 96.1247 643.22 93.703 646.214 88.7136C649.207 83.7242 649.95 80.4386 652.42 82.9941C654.891 85.5496 652.043 92.4496 651.666 94.0194C651.289 95.5892 647.54 100.323 653.832 97.8284C660.124 95.3337 669.848 83.8703 672.367 81.5338C674.887 79.1973 676.201 82.8237 675.629 85.7078C675.057 88.5919 677.771 95.1511 676.773 99.885C675.738 104.935 674.996 107.187 670.128 112.152C665.576 116.739 654.477 122.337 650.132 128.337C645.788 134.336 636.502 152.991 630.83 164.284C623.614 178.571 615.703 186.7 606.38 178.717C599.224 172.45 591.861 165.136 588.247 161.425Z" fill="#FFBDA7"/>
<path d="M563.396 93.3379C571.635 94.0924 575.992 95.9786 584.219 106.724C592.446 117.469 611.529 145.86 611.529 145.86L627.983 125.708C627.983 125.708 639.35 134.36 645.313 144.473C645.313 144.473 629.358 171.245 622.969 177.999C616.579 184.753 611.626 185.301 602.924 177.999C594.223 170.698 569.152 143.049 569.152 143.049L563.396 93.3379Z" fill="#F0F0F0"/>
<path d="M611.528 145.885C607.804 151.288 605.382 160.062 606.052 164.491C606.052 164.491 600.855 158.504 609.593 143.025L611.528 145.885Z" fill="#E0E0E0"/>
<path d="M490.715 495.117H509.445L513.169 461.956H490.715V495.117Z" fill="#FFBDA7"/>
<path d="M552.588 461.006L572.547 461.676L572.182 427.346L549.606 426.908L552.588 461.006Z" fill="#FFBDA7"/>
<path d="M490.91 228.599C490.557 246.78 486.686 367.072 486.686 367.072C485.38 376.905 484.608 386.801 484.374 396.717C483.875 420.751 488.914 477.8 488.914 477.8C490.033 482.984 509.396 485.102 511.952 480.416C511.952 480.416 522.54 397.666 525.558 373.875C528.162 353.114 536.816 285.222 536.816 285.222L543.497 351.934C543.241 359.71 543.424 367.494 544.045 375.25C544.811 386.275 550.349 451.149 550.349 451.149C550.446 455.202 570.576 458.536 573.971 452.585C573.971 452.585 580.275 357.824 580.543 347.723C580.762 336.211 579.156 227.248 579.156 227.248L490.91 228.599Z" fill="#37474F"/>
<path d="M510.516 485.552L510.82 482.741C511.867 482.741 512.317 483.958 512.743 486.391C513.628 491.697 515.302 496.841 517.709 501.652C520.861 508.187 522.747 510.912 529.015 518.798C530.5 520.672 533.883 523.666 535.039 525.722C536.195 527.779 536.609 533.596 534.625 534.934C527.323 539.802 516.212 539.948 508.35 537.648C505.371 536.922 502.684 535.305 500.647 533.014C498.61 530.723 497.319 527.865 496.946 524.822C495.668 517.679 494.999 513.249 491.36 507.785C490.021 505.801 487.855 504.195 486.955 501.992C485.385 498.001 486.626 493.535 487.673 489.555C488.573 486.136 489.547 482.376 490.715 482.692V484.797C492.115 486.379 497.007 487.949 501.425 488.083C504.261 488.278 510.54 487.754 510.516 485.552Z" fill="#263238"/>
<path d="M572.486 456.248C572.973 456.589 574.056 457.83 576.137 459.753C578.187 461.542 580.341 463.208 582.588 464.742C587.159 468.089 591.962 471.106 596.961 473.772C602.9 477.033 608.255 479.017 615.35 482.217C616.1 482.511 616.78 482.959 617.346 483.532C617.769 484.043 618.065 484.648 618.21 485.296C618.415 486.638 618.247 488.011 617.723 489.263C617.199 490.518 616.335 491.601 615.228 492.391C613.003 493.942 610.479 495.011 607.816 495.53C601.789 497.229 595.437 497.421 589.318 496.09C584.028 494.584 579.006 492.26 574.434 489.202C570.628 486.501 566.294 484.635 561.716 483.726C557.736 483.167 552.844 483.349 549.375 480.976C545.541 478.323 547.075 472.677 548.158 467.809C549.375 462.515 549.606 454.423 552.016 454.593L552.211 456.723C552.43 458.998 557.979 460.057 562.251 460.057C565.817 460.057 572.547 459.12 572.511 457.453L572.486 456.248Z" fill="#263238"/>
<path d="M538.799 259.776C546.44 256.815 553.406 252.345 559.282 246.634C559.282 246.634 556.02 256.089 542.645 263.963L543.533 346.969L536.791 285.198L538.799 259.776Z" fill="#263238"/>
<path d="M521.092 91.269C517.708 92.0722 506.913 94.9928 498.163 98.0838C493.747 99.7651 489.916 102.695 487.137 106.517C480.833 115.802 486.504 136.453 491.177 175.261C490.836 200.33 490.106 231.519 490.106 231.519C501.644 239.916 555.436 245.623 579.715 227.868C579.715 227.868 580.519 133.752 578.912 121.51C575.76 98.0716 566.669 91.8167 547.732 90.7214L521.092 91.269Z" fill="#6EDCDF"/>
<path d="M554.158 118.808C555.862 124.674 565.927 165.842 564.515 180.336C563.435 187.782 561.424 195.064 558.527 202.009C554.158 212.316 551.225 203.092 548.791 196.995C546.744 191.31 545.372 185.404 544.702 179.399C543.899 171.622 547.027 147.978 545.822 120.256C546.735 118.965 548.124 118.09 549.683 117.823C551.242 117.556 552.843 117.919 554.134 118.832L554.158 118.808Z" fill="#2FA9AD"/>
<path d="M554.536 105.58C558.527 108.987 554.158 118.796 554.158 118.796C551.308 118.182 548.33 118.692 545.846 120.22C545.846 120.22 537.923 116.824 537.923 110.935C537.923 105.58 543.607 107.284 547.659 106.59C551.712 105.896 554.061 102.72 554.536 105.58Z" fill="#2B8989"/>
<path opacity="0.2" d="M554.158 118.808C553.513 116.508 550.386 116.727 547.866 115.948C546.45 115.393 545.265 114.371 544.507 113.052C543.217 110.825 544.507 107.138 546.296 106.748C542.438 107.016 537.862 106.128 537.875 110.935C537.875 116.824 545.822 120.22 545.822 120.22C548.314 118.691 551.301 118.185 554.158 118.808Z" fill="black"/>
<path d="M526.763 36.9092C526.944 42.9632 529.37 48.7336 533.568 53.0993C537.766 57.465 543.438 60.1143 549.481 60.5323C555.523 60.9503 561.506 59.1073 566.265 55.3613C571.025 51.6153 574.222 46.2338 575.235 40.2625C576.248 34.2912 575.005 28.1565 571.748 23.0503C568.49 17.9442 563.451 14.2312 557.608 12.6329C551.766 11.0346 545.538 11.6651 540.134 14.4019C534.731 17.1386 530.537 21.7862 528.369 27.4416C527.224 30.4631 526.678 33.6789 526.763 36.9092Z" fill="#455A64"/>
<path d="M509.335 54.7615C509.335 54.7615 513.753 73.3195 515.421 76.3497C516.521 78.2112 518.294 79.5791 520.374 80.1708L519.79 67.0524L509.335 54.7615Z" fill="#455A64"/>
<path d="M513.68 27.8432C512.294 27.7225 510.899 27.9184 509.601 28.4159C508.302 28.9134 507.133 29.6997 506.183 30.7151C503.031 34.1347 505.063 44.5394 509.323 54.7615L516.832 55.443L513.68 27.8432Z" fill="#455A64"/>
<path d="M519.084 55.3335C517.599 56.2584 515.433 53.423 513.485 51.5367C511.538 49.6505 505.502 47.1558 502.629 53.5446C499.757 59.9335 505.66 68.4884 510.516 69.8757C518.767 72.3096 519.862 66.9673 519.862 66.9673L521.274 100.42C527.116 107.552 540.868 107.953 547.684 106.505C553.136 105.398 553.221 101.54 547.842 95.6258L547.598 86.0243C551.246 86.5446 554.938 86.6711 558.612 86.4015C564.612 85.3185 568.349 80.4751 569.967 73.9159C572.486 63.8763 573.119 52.6806 570.576 34.3416C567.424 11.8042 541.039 12.291 527.067 21.4788C513.096 30.6665 519.084 55.3335 519.084 55.3335Z" fill="#FFBDA7"/>
<path d="M519.144 57.8524C518.39 57.8524 515.396 53.1308 513.485 51.5488C510.856 49.2731 513.68 27.9283 513.68 27.9283C512.751 26.0685 512.403 23.9719 512.683 21.9119C512.963 19.8518 513.858 17.924 515.25 16.3797C518.706 12.4004 523.526 7.50837 539.651 9.0782C551.152 10.1613 563.724 13.4348 573.728 8.23853C574.745 11.505 574.762 15.001 573.778 18.2774C572.793 21.5539 570.852 24.4613 568.202 26.6262C568.202 26.6262 564.551 29.0601 555.034 30.4473C545.517 31.8346 530.475 30.8124 528.418 30.5934C525.631 30.277 525.096 33.0272 523.769 40.3288C522.503 46.7663 521.676 57.7429 519.144 57.8524Z" fill="#455A64"/>
<path d="M513.741 29.5226L504.54 24.7888C504.83 24.1678 505.244 23.6128 505.757 23.1581C506.254 22.6986 506.837 22.3428 507.473 22.1116C508.114 21.8913 508.792 21.7963 509.469 21.8317C510.143 21.8789 510.801 22.0609 511.404 22.3671C512.655 23.0123 513.603 24.122 514.045 25.4581C514.47 26.8016 514.361 28.2574 513.741 29.5226Z" fill="#455A64"/>
<path d="M547.525 86.1093C547.525 86.1093 534.016 83.6754 529.27 81.3876C526.466 80.0098 524.148 77.8111 522.625 75.084C523.396 77.8181 524.713 80.368 526.495 82.5802C530.024 86.9003 547.659 90.0521 547.659 90.0521L547.525 86.1093Z" fill="#F0997A"/>
<path d="M543.01 52.0476C542.957 52.5706 542.753 53.0667 542.422 53.4752C542.092 53.8837 541.649 54.1869 541.148 54.3476C540.644 54.4995 540.107 54.4995 539.603 54.3476C539.097 54.2099 538.641 53.9314 538.288 53.5444C537.947 53.139 537.728 52.6454 537.656 52.1207C537.589 51.6007 537.673 51.0726 537.899 50.5995C538.13 50.1212 538.499 49.7229 538.958 49.4556C539.408 49.185 539.93 49.0577 540.455 49.0905C540.815 49.1145 541.168 49.2096 541.492 49.3704C541.815 49.5312 542.104 49.7546 542.341 50.0275C542.82 50.5872 543.061 51.3126 543.01 52.0476Z" fill="#263238"/>
<path d="M541.258 41.8987L535.343 44.7828C534.965 43.9728 534.917 43.0477 535.209 42.2029C535.51 41.3616 536.119 40.6658 536.913 40.2559C537.293 40.0664 537.707 39.9547 538.13 39.9273C538.565 39.8995 539.001 39.966 539.408 40.122C539.816 40.2767 540.189 40.5127 540.503 40.8156C540.83 41.1176 541.088 41.4872 541.258 41.8987Z" fill="#263238"/>
<path d="M544.556 70.1921L552.965 72.4921C552.689 73.6106 551.98 74.5736 550.994 75.1694C550.507 75.467 549.964 75.6615 549.399 75.7411C548.834 75.8206 548.258 75.7834 547.708 75.6318C546.585 75.302 545.632 74.5536 545.046 73.5413C544.459 72.529 544.284 71.33 544.556 70.1921Z" fill="#F0997A"/>
<path d="M569.188 44.4055L562.884 42.2394C562.987 41.798 563.182 41.3832 563.456 41.0225C563.727 40.6776 564.065 40.3918 564.45 40.1825C564.835 39.9732 565.259 39.8449 565.696 39.8056C566.133 39.7705 566.573 39.8286 566.986 39.9759C567.848 40.268 568.562 40.8864 568.974 41.6986C569.386 42.5108 569.463 43.452 569.188 44.3203V44.4055Z" fill="#263238"/>
<path d="M566.036 51.2812C566.066 51.6347 566.025 51.9906 565.914 52.3277C565.814 52.6723 565.649 52.9945 565.428 53.2769C565.2 53.5554 564.924 53.7904 564.612 53.9706C564.135 54.235 563.588 54.3432 563.046 54.2799C562.505 54.2166 561.997 53.985 561.594 53.6177C561.318 53.3827 561.091 53.0946 560.928 52.7707C560.765 52.4467 560.669 52.0933 560.645 51.7314C560.608 51.3788 560.645 51.0223 560.754 50.6849C560.864 50.3504 561.037 50.0404 561.265 49.7722C561.488 49.4948 561.765 49.2669 562.081 49.1029C562.397 48.9452 562.739 48.8463 563.091 48.8108C563.444 48.7842 563.8 48.8255 564.137 48.9325C564.478 49.0295 564.794 49.1998 565.062 49.4315C565.331 49.6597 565.554 49.9363 565.72 50.2468C565.894 50.5665 566.002 50.9185 566.036 51.2812Z" fill="#263238"/>
<path d="M551.493 49.76L552.528 65.9694L560.962 63.0366L551.493 49.76Z" fill="#F0997A"/>
<path d="M547.659 106.59C540.174 105.008 522.455 98.0718 520.787 89.456L520.568 84.7222C517.647 84.7222 516.333 87.9592 514.897 92.6078C514.301 104.777 527.201 115.997 540.101 119.003C540.53 116.169 541.497 113.443 542.949 110.971C544.051 109.077 545.69 107.552 547.659 106.59Z" fill="#2FA9AD"/>
<path d="M547.562 87.3142C549.541 87.9139 551.34 88.9971 552.795 90.466C562.531 100.493 556.945 113.588 556.945 113.588C556.45 111.397 555.201 109.45 553.416 108.087C551.719 106.957 549.693 106.426 547.659 106.578C550.033 104.035 549.108 99.6173 547.818 95.6258L547.562 87.3142Z" fill="#2FA9AD"/>
<path d="M575.724 43.9673L574.434 43.8091C570.057 43.2767 565.625 43.4163 561.29 44.2228C557.067 45.3668 555.546 46.6567 553.233 46.6567C550.921 46.6567 549.229 45.3789 544.812 44.2228C540.186 43.4445 535.473 43.3339 530.816 43.8943L529.392 44.0525L509.348 49.4313C511.076 49.7229 512.66 50.5787 513.851 51.8651L528.455 47.9101C528.662 48.19 528.857 48.4456 529.003 48.6159C529.208 48.9087 529.353 49.2398 529.428 49.5895C529.705 51.8583 530.198 54.0955 530.901 56.2704C531.303 57.1832 531.877 58.0097 532.593 58.7042C532.87 58.9629 533.167 59.1989 533.481 59.41L533.992 59.7264C534.499 59.993 535.028 60.213 535.574 60.3836L535.842 60.4688L536.244 60.5783L536.694 60.6756C537.153 60.7619 537.616 60.8229 538.082 60.8582H539.396C545.165 60.8582 547.659 58.4243 549.132 55.8688C550.605 53.3133 550.422 49.7842 553.075 49.7842H553.562C555.509 50.1736 555.132 53.4349 556.3 55.8079C556.759 56.7812 557.39 57.6635 558.162 58.4122L558.588 58.8016L558.82 58.9963L559.075 59.1788L559.294 59.3248L559.538 59.483L559.72 59.5926H559.83C560.54 59.9735 561.303 60.2482 562.093 60.4079H562.3C563.218 60.5902 564.152 60.6759 565.087 60.6635C570.479 60.6635 572.389 57.7794 573.387 55.9418C574.212 53.7697 574.847 51.5303 575.286 49.2487C575.382 48.9101 575.567 48.6034 575.821 48.3604C576.487 47.696 576.94 46.8489 577.124 45.9265C577.139 45.486 577.006 45.053 576.746 44.6975C576.485 44.342 576.112 44.0847 575.687 43.9673H575.724ZM547.732 53.508C547.348 54.8666 546.589 56.0896 545.542 57.037C543.784 58.4987 541.531 59.2266 539.25 59.0693C538.125 59.1525 536.997 58.9604 535.964 58.5095C534.929 58.0731 534.017 57.3875 533.311 56.5138L533.116 56.2582L532.958 56.0148C532.906 55.9378 532.861 55.8564 532.824 55.7714L532.69 55.5767L532.617 55.3942C532.617 55.3629 532.609 55.3322 532.594 55.3047C532.579 55.2771 532.558 55.2536 532.532 55.236C532.459 55.236 532.459 55.0778 532.422 54.9926C532.386 54.9074 532.24 54.4815 532.155 54.2503C532.134 54.0994 532.093 53.9519 532.033 53.8122L531.863 53.082C531.863 52.863 531.863 53.009 531.863 52.9603V52.8143C531.485 51.0498 531.084 47.5816 532.106 46.8027C533.128 46.0239 535.757 45.2207 539.992 45.5858H540.443C541.094 45.6438 541.74 45.7454 542.378 45.89L543.144 46.0482C543.783 46.1953 544.413 46.3782 545.031 46.5958L545.591 46.8149L546.223 47.0826H546.345L546.576 47.2043C547.042 47.4197 547.456 47.7307 547.793 48.117C548.706 49.2366 548.305 51.5365 547.745 53.5445L547.732 53.508ZM572.767 52.6561C572.544 53.8619 572.044 54.9993 571.306 55.9783C570.571 56.9679 569.612 57.7688 568.507 58.3148C567.512 58.7297 566.445 58.9447 565.367 58.9476C564.18 59.0798 562.978 58.908 561.875 58.4481C560.772 57.9883 559.805 57.2557 559.063 56.319C559.016 56.2746 558.978 56.2207 558.953 56.1609C558.902 56.1009 558.857 56.0356 558.82 55.9661V55.881L558.613 55.6132L558.467 55.2847C558.454 55.2327 558.454 55.1785 558.467 55.1265V54.9926C558.455 54.9571 558.455 54.9186 558.467 54.8831C558.297 54.4597 558.175 54.019 558.102 53.5688C557.724 51.5974 557.578 49.2974 558.43 48.2144C559.282 47.1313 562.471 45.9265 565.538 45.5858C566.243 45.5858 566.901 45.4641 567.497 45.4398H569.773C570.104 45.4706 570.433 45.5193 570.759 45.5858H571.379L571.659 45.6588L572.122 45.8414C572.495 45.9759 572.844 46.169 573.156 46.4133C573.911 47.4599 573.217 50.9037 572.779 52.6561H572.767Z" fill="#37474F"/>
<path d="M520.788 89.967C520.788 89.967 526.483 118.589 528.942 137.95C531.4 157.311 530.937 211.988 529.623 246.634C528.674 271.836 524.889 318.59 524.889 318.59C524.889 318.59 518.585 319.807 503.615 317.373C490.788 315.256 484.301 311.459 481.551 309.804C481.551 309.804 483.985 238.821 485.75 214.032C487.405 191.166 487.319 178.595 487.319 178.595L481.94 126.402C481.94 126.402 482.342 93.6056 492.516 92.2183C503.031 90.7945 520.788 89.967 520.788 89.967Z" fill="#FAFAFA"/>
<path d="M511.051 136.916C511.051 135.699 510.917 133.131 510.71 129.858C509.713 113.867 511.173 90.7337 516.564 89.5776L517.051 91.7803C513.096 92.6321 512.475 121.948 512.962 129.712C513.193 133.046 513.339 135.687 513.303 137.013L511.051 136.916Z" fill="#2FA9AD"/>
<path d="M490.581 260.421C487.989 255.992 487.843 252.682 483.924 248.727C482.241 247.106 481.015 245.07 480.37 242.825C479.153 239.283 479.238 235.523 478.958 231.702L456.2 232.761C456.383 241.228 457.319 249.662 458.999 257.963C463.32 276.971 467.518 284.979 475.66 286.816C488.707 289.761 491.92 284.139 487.332 274.732C485.369 270.808 483.96 266.631 483.145 262.32C484.556 263.985 486.195 265.444 488.013 266.652C488.938 267.346 490.093 267.663 491.242 267.539C492.392 267.414 493.452 266.858 494.208 265.983C494.78 265.094 492.626 263.853 490.581 260.421Z" fill="#FFBDA7"/>
<path d="M496.727 92.2182C496.727 92.2182 484.618 92.0479 477.827 98.1568C471.036 104.266 467.433 120.621 463.028 137.025C458.622 153.429 454.728 169.322 453.584 180.725C452.598 190.18 455.786 240.354 455.786 240.354C455.786 240.354 469.636 243.263 480.285 237.421L480.735 181.747L498.297 125.915C501.503 114.817 500.951 102.97 496.727 92.2182Z" fill="#F0F0F0"/>
<path d="M520.362 80.6454C518.78 80.3169 517.319 81.1565 516.029 83.3592C514.739 85.5618 511.879 90.1861 511.879 90.1861C511.879 90.1861 510.419 105.568 511.879 109.389C513.096 112.699 521.615 128.3 521.615 128.3C521.615 128.3 521.068 143.475 520.921 148.014C520.775 152.553 529.575 171.489 530.56 180.275C530.56 180.275 531.011 144.534 529.696 134.592C527.433 117.263 524.597 96.6358 520.763 89.5655L520.362 80.6454Z" fill="#EBEBEB"/>
<path d="M507.753 189.949H507.558V188.367C509.429 188.227 511.222 187.56 512.731 186.445C511.113 185.372 509.665 184.063 508.435 182.563C505.891 179.265 500.329 155.79 502.033 150.314C503.481 145.726 507.984 135.614 511.988 135.443H512.098C516.102 135.443 521.384 145.008 523.124 149.414C525.303 154.719 521.761 178.62 519.473 182.088C518.373 183.689 517.04 185.116 515.518 186.323C517.109 187.314 518.95 187.829 520.824 187.808L521.031 189.377C518.58 189.414 516.175 188.71 514.13 187.357C512.285 188.793 510.077 189.69 507.753 189.949ZM512.183 137.001C509.822 137.098 505.599 144.607 503.664 150.752C502.082 155.778 507.437 178.51 509.749 181.553C511.013 183.075 512.513 184.386 514.191 185.435C515.785 184.253 517.175 182.818 518.305 181.187C520.386 177.963 523.781 154.865 521.785 149.986C519.351 144.01 514.568 137.001 512.195 137.001H512.183Z" fill="#455A64"/>
<path d="M523.501 188.477C523.524 188.783 523.478 189.091 523.367 189.377C523.269 189.663 523.111 189.924 522.905 190.144C522.697 190.367 522.449 190.548 522.175 190.68C521.898 190.802 521.601 190.873 521.298 190.886C520.996 190.904 520.694 190.858 520.41 190.753C520.12 190.65 519.853 190.489 519.627 190.28C519.401 190.07 519.22 189.817 519.096 189.536C518.971 189.255 518.901 188.954 518.889 188.647C518.866 188.345 518.911 188.041 519.023 187.759C519.118 187.472 519.276 187.211 519.485 186.992C519.901 186.54 520.478 186.269 521.091 186.238C521.397 186.228 521.702 186.273 521.992 186.372C522.275 186.481 522.535 186.642 522.759 186.846C522.988 187.048 523.171 187.297 523.294 187.576C523.42 187.861 523.49 188.166 523.501 188.477Z" fill="#263238"/>
<path d="M509.932 189.049C509.946 189.353 509.9 189.657 509.796 189.944C509.691 190.23 509.53 190.493 509.323 190.716C508.9 191.156 508.326 191.421 507.717 191.458C507.411 191.468 507.106 191.423 506.816 191.324C506.533 191.221 506.273 191.064 506.049 190.862C505.83 190.651 505.649 190.404 505.514 190.132C505.391 189.855 505.321 189.558 505.307 189.256C505.291 188.95 505.336 188.643 505.441 188.355C505.549 188.075 505.706 187.815 505.903 187.588C506.107 187.362 506.356 187.18 506.633 187.053C506.912 186.921 507.214 186.846 507.522 186.834C507.826 186.819 508.131 186.865 508.417 186.97C508.703 187.074 508.966 187.235 509.189 187.442C509.412 187.65 509.593 187.898 509.725 188.173C509.847 188.449 509.918 188.746 509.932 189.049Z" fill="#263238"/>
<path d="M523.684 159.77L522.357 159.672C522.293 159.685 522.227 159.685 522.162 159.672C522.097 159.646 522.039 159.605 521.992 159.552C521.946 159.499 521.912 159.436 521.895 159.368C521.877 159.304 521.877 159.237 521.895 159.173C522.162 154.756 522.016 151.519 521.481 150.217C519.156 144.522 514.313 137.391 512.219 137.476C510.126 137.561 505.915 145.081 504.065 150.959C503.667 153.938 503.782 156.964 504.406 159.904C504.429 160.039 504.398 160.179 504.321 160.293C504.238 160.405 504.117 160.483 503.98 160.512L502.629 160.634C502.566 160.652 502.498 160.652 502.435 160.634C502.368 160.62 502.305 160.591 502.252 160.549C502.194 160.508 502.148 160.454 502.118 160.39C502.081 160.331 502.057 160.265 502.045 160.196C501.327 155.328 501.23 151.921 501.777 150.193C502.763 147.041 507.412 135.249 512.086 135.042C516.759 134.835 522.406 146.201 523.647 149.219C524.341 150.898 524.548 154.257 524.231 159.198C524.244 159.27 524.244 159.344 524.231 159.417C524.203 159.485 524.162 159.547 524.11 159.599C524.057 159.652 523.995 159.693 523.927 159.721C523.851 159.755 523.767 159.771 523.684 159.77Z" fill="#2FA9AD"/>
<path d="M547.525 86.1094C549.606 86.3041 551.42 89.3707 556.203 90.8432C565.16 93.4839 573.241 97.5484 575.784 103.012C579.947 112.115 580.652 113.904 582.089 154.452C583.525 195 584.072 310.388 584.072 310.388C579.776 312.332 575.095 313.277 570.381 313.15C570.381 313.15 570.746 185.714 569.894 157.068C569.042 128.422 564.697 114.476 558.491 104.972C556.738 97.0982 551.188 91.8411 547.464 87.9348L547.525 86.1094Z" fill="#FAFAFA"/>
<path d="M558.527 105.045C564.734 114.5 569.067 128.47 569.931 157.129C570.028 160.536 570.113 165.331 570.199 171.075C570.199 171.075 575.298 145.118 574.409 139.569C573.521 134.019 567.521 122.629 567.521 122.629C568.288 113.174 566.085 102.367 562.446 95.8568C561.597 94.3385 560.536 92.9494 559.294 91.7314C558.086 90.7492 556.795 89.8738 555.436 89.1151C553.107 87.4593 550.4 86.4134 547.562 86.0728V88.032C551.201 91.914 556.775 97.1346 558.527 105.045Z" fill="#EBEBEB"/>
<path d="M371.082 92.0359C382.972 91.8412 389.337 97.1835 398.099 110.935C405.548 122.629 422.805 150.618 427.649 159.04C433.137 168.495 433.953 172.426 429.608 179.52C425.519 186.286 386.842 230.96 386.842 230.96L376.862 213.253L401.726 171.708L372.578 128.653L371.082 92.0359Z" fill="#B16668"/>
<path d="M370.315 91.4516C378.919 91.0013 384.274 92.778 389.447 97.7552C394.619 102.732 421.332 147.552 421.332 147.552C421.332 147.552 417.487 156.739 394.972 168.738L372.907 138.814L370.315 91.4516Z" fill="#26999D"/>
<path d="M429.389 502.942C429.791 502.942 430.424 507.566 428.172 509.525C425.531 511.789 417.815 515.524 407.617 514.247C397.418 512.969 391.856 509.781 387.803 506.373C383.751 502.966 377.994 498.135 373.382 497.112C369.098 496.163 364.449 494.228 363.074 492.902C361.698 491.575 361.857 485.686 361.857 485.686L429.389 502.942Z" fill="#455A64"/>
<path d="M365.983 462.966C365.597 462.957 365.222 463.096 364.936 463.355C364.642 463.601 364.451 463.949 364.4 464.329C364.096 465.911 363.755 470.632 363.086 473.346C362.015 478.036 361.674 482.863 362.076 487.657C362.636 490.675 369.621 492.768 374.088 494.472C379.341 496.773 384.219 499.85 388.558 503.599C393.28 507.554 403.442 511.667 410.087 511.618C417.962 511.618 426.797 509.026 428.829 505.315C431.349 500.8 429.389 498.183 417.718 492.719C415.503 491.697 407.763 487.097 405.11 485.418C397.954 480.915 390.931 474.636 387.572 466.677C387.315 465.698 386.726 464.838 385.905 464.243C385.192 463.935 384.399 463.863 383.642 464.037C381.697 464.317 379.806 464.887 378.031 465.728C376.461 466.483 374.234 467.298 374.27 469.379C374.313 470.075 374.461 470.76 374.709 471.411C374.855 471.813 374.964 472.373 374.599 472.628C374.411 472.71 374.201 472.725 374.003 472.669C373.806 472.614 373.634 472.492 373.516 472.324C372.364 471.154 371.31 469.893 370.364 468.551C369.82 467.859 369.199 467.231 368.514 466.677C367.825 466.28 367.159 465.846 366.518 465.375C365.812 464.779 365.983 463.891 365.983 462.966Z" fill="#BA68C8"/>
<path opacity="0.9" d="M365.983 462.966C365.597 462.957 365.222 463.096 364.936 463.355C364.642 463.601 364.451 463.949 364.4 464.329C364.096 465.911 363.755 470.632 363.086 473.346C362.015 478.036 361.674 482.863 362.076 487.657C362.636 490.675 369.621 492.768 374.088 494.472C379.341 496.773 384.219 499.85 388.558 503.599C393.28 507.554 403.442 511.667 410.087 511.618C417.962 511.618 426.797 509.026 428.829 505.315C431.349 500.8 429.389 498.183 417.718 492.719C415.503 491.697 407.763 487.097 405.11 485.418C397.954 480.915 390.931 474.636 387.572 466.677C387.315 465.698 386.726 464.838 385.905 464.243C385.192 463.935 384.399 463.863 383.642 464.037C381.697 464.317 379.806 464.887 378.031 465.728C376.461 466.483 374.234 467.298 374.27 469.379C374.313 470.075 374.461 470.76 374.709 471.411C374.855 471.813 374.964 472.373 374.599 472.628C374.411 472.71 374.201 472.725 374.003 472.669C373.806 472.614 373.634 472.492 373.516 472.324C372.364 471.154 371.31 469.893 370.364 468.551C369.82 467.859 369.199 467.231 368.514 466.677C367.825 466.28 367.159 465.846 366.518 465.375C365.812 464.779 365.983 463.891 365.983 462.966Z" fill="white"/>
<path d="M388.558 503.599C386.526 501.932 384.359 500.313 382.254 498.877C382.254 498.877 395.97 507.225 401.519 503.428C405.097 500.995 403.394 498.025 403.296 497.125C403.199 496.224 412.022 492.135 415.466 491.722C416.44 492.257 417.243 492.683 417.754 492.939C429.426 498.342 431.397 500.946 428.878 505.534C426.846 509.184 420.432 512.02 410.27 512.02C403.564 511.874 393.341 507.554 388.558 503.599Z" fill="#BA68C8"/>
<path opacity="0.8" d="M388.558 503.599C386.526 501.932 384.359 500.313 382.254 498.877C382.254 498.877 395.97 507.225 401.519 503.428C405.097 500.995 403.394 498.025 403.296 497.125C403.199 496.224 412.022 492.135 415.466 491.722C416.44 492.257 417.243 492.683 417.754 492.939C429.426 498.342 431.397 500.946 428.878 505.534C426.846 509.184 420.432 512.02 410.27 512.02C403.564 511.874 393.341 507.554 388.558 503.599Z" fill="white"/>
<path d="M402.213 494.289C409.515 497.186 406.363 498.549 404.355 498.841C402.347 499.133 390.177 491.989 382.656 486.099C374.842 479.954 370.059 473.249 367.114 470.949C366.043 470.097 364.875 469.075 363.853 468.101C364.047 466.519 364.205 465.059 364.339 464.28C364.39 463.9 364.581 463.553 364.875 463.306C365.16 463.046 365.535 462.907 365.921 462.917C365.921 463.842 365.775 464.73 366.481 465.436C367.126 465.903 367.797 466.333 368.489 466.726C369.174 467.276 369.79 467.905 370.327 468.6C371.28 469.94 372.334 471.205 373.479 472.385C379.844 480.465 395.033 491.393 402.213 494.289Z" fill="#6EDCDF"/>
<path d="M403.893 497.721C403.758 497.728 403.625 497.69 403.515 497.612C403.397 497.546 403.303 497.444 403.248 497.32C403.206 497.193 403.206 497.057 403.248 496.93C403.262 496.792 403.317 496.66 403.406 496.553C405.126 494.785 407.199 493.4 409.491 492.488C411.779 491.576 414.235 491.161 416.696 491.271C416.873 491.312 417.028 491.416 417.134 491.563C417.242 491.706 417.29 491.885 417.268 492.062C417.25 492.242 417.163 492.408 417.024 492.525C416.891 492.644 416.717 492.709 416.538 492.707C414.319 492.619 412.106 492.992 410.039 493.803C407.964 494.618 406.086 495.862 404.526 497.453C404.451 497.528 404.364 497.589 404.27 497.636C404.153 497.695 404.023 497.724 403.893 497.721Z" fill="#FAFAFA"/>
<path d="M397.564 493.888C397.398 493.879 397.239 493.815 397.114 493.705C397.04 493.646 396.98 493.572 396.936 493.488C396.892 493.404 396.865 493.313 396.858 493.218C396.847 493.127 396.856 493.034 396.883 492.946C396.91 492.858 396.956 492.777 397.016 492.707C398.729 490.939 400.799 489.558 403.089 488.655C405.379 487.753 407.836 487.35 410.294 487.474C410.387 487.48 410.479 487.505 410.562 487.547C410.645 487.595 410.72 487.656 410.781 487.73C410.842 487.801 410.887 487.884 410.915 487.973C410.933 488.07 410.933 488.169 410.915 488.265C410.905 488.356 410.876 488.443 410.83 488.521C410.782 488.604 410.721 488.679 410.647 488.74C410.577 488.8 410.493 488.841 410.404 488.862C410.312 488.887 410.215 488.887 410.124 488.862C407.899 488.778 405.682 489.156 403.611 489.97C401.539 490.785 399.659 492.019 398.087 493.596C398.023 493.679 397.94 493.746 397.844 493.79C397.759 493.844 397.664 493.877 397.564 493.888Z" fill="#FAFAFA"/>
<path d="M391.187 490.201C391.023 490.198 390.867 490.132 390.749 490.018C390.67 489.968 390.607 489.896 390.566 489.811C390.52 489.729 390.491 489.637 390.481 489.543C390.463 489.451 390.463 489.356 390.481 489.263C390.509 489.174 390.554 489.091 390.615 489.02C392.325 487.245 394.396 485.858 396.69 484.955C398.983 484.052 401.444 483.654 403.905 483.787C403.998 483.797 404.089 483.826 404.17 483.872C404.252 483.918 404.323 483.98 404.38 484.055C404.498 484.202 404.555 484.39 404.538 484.578C404.511 484.764 404.415 484.934 404.27 485.053C404.198 485.112 404.114 485.155 404.024 485.18C403.934 485.205 403.839 485.212 403.747 485.199C401.523 485.107 399.305 485.48 397.234 486.295C395.164 487.11 393.286 488.349 391.723 489.933C391.659 490.017 391.575 490.083 391.479 490.128C391.388 490.173 391.289 490.197 391.187 490.201Z" fill="#FAFAFA"/>
<path d="M385.369 485.978C385.206 485.975 385.048 485.919 384.919 485.819C384.772 485.698 384.68 485.524 384.662 485.335C384.643 485.145 384.701 484.956 384.822 484.809C386.536 483.042 388.606 481.661 390.895 480.756C393.185 479.852 395.641 479.446 398.1 479.564C398.2 479.566 398.299 479.586 398.392 479.625C398.488 479.663 398.575 479.721 398.647 479.796C398.715 479.873 398.764 479.965 398.793 480.063C398.817 480.159 398.817 480.26 398.793 480.355C398.787 480.46 398.753 480.56 398.696 480.647C398.648 480.738 398.582 480.817 398.501 480.879C398.416 480.937 398.321 480.978 398.221 481C398.121 481.019 398.018 481.019 397.917 481C395.694 480.902 393.475 481.271 391.404 482.085C389.332 482.898 387.455 484.137 385.893 485.722C385.822 485.804 385.735 485.87 385.637 485.917C385.552 485.951 385.461 485.972 385.369 485.978Z" fill="#FAFAFA"/>
<path d="M379.625 481.767C379.464 481.771 379.308 481.714 379.187 481.609C379.108 481.559 379.044 481.487 379.004 481.402C378.959 481.319 378.93 481.228 378.919 481.134C378.909 481.04 378.917 480.945 378.944 480.854C378.964 480.761 379.006 480.673 379.065 480.599C381.877 477.045 388.242 474.709 393.572 475.293C393.666 475.307 393.756 475.335 393.84 475.378C393.923 475.425 393.998 475.487 394.059 475.561C394.116 475.632 394.158 475.715 394.181 475.804C394.205 475.896 394.205 475.992 394.181 476.084C394.171 476.178 394.142 476.269 394.096 476.352C394.06 476.436 394.001 476.507 393.925 476.559C393.851 476.622 393.764 476.668 393.67 476.692C393.581 476.71 393.49 476.71 393.402 476.692C388.595 476.169 382.668 478.262 380.161 481.414C380.102 481.512 380.018 481.592 379.917 481.645C379.832 481.711 379.732 481.753 379.625 481.767Z" fill="#FAFAFA"/>
<path d="M319.054 520.928C319.346 527.864 318.738 532.537 316.705 536.833C314.673 541.128 310.17 542.856 305.375 542.151C300.58 541.445 294.276 538.865 292.341 533.06C290.405 527.256 290.259 523.13 290.685 516.632L319.054 520.928Z" fill="#455A64"/>
<path d="M295.444 472.859C293.521 473.2 293.862 482.522 293.704 491.892C293.521 501.968 290.965 506.373 290.71 514.624C290.442 524.08 291.343 528.156 295.176 533.523C299.01 538.89 311.095 543.185 315.987 534.557C319.967 527.511 319.419 520.21 318.056 510.925C316.657 501.36 315.622 494.642 315.257 487.304C314.928 480.295 314.734 473.48 312.993 472.872V476.242C312.993 477.033 313.152 480.83 312.068 480.964C311.896 480.098 311.802 479.218 311.788 478.336C311.827 477.536 311.557 476.752 311.034 476.145C310.39 475.657 309.603 475.396 308.795 475.403C306.866 475.2 304.929 475.094 302.989 475.086C302.016 475.056 301.042 475.117 300.081 475.269C299.243 475.335 298.421 475.536 297.647 475.865C297.42 475.958 297.217 476.099 297.05 476.279C296.891 476.459 296.771 476.671 296.697 476.9C296.637 477.254 296.637 477.616 296.697 477.97C296.771 478.613 296.771 479.262 296.697 479.905C296.697 480.197 296.503 480.562 296.223 480.514C295.943 480.465 295.882 480.21 295.845 479.978C295.736 478.859 295.846 478.019 295.699 476.717V474.66C295.736 474.052 295.456 473.456 295.444 472.859Z" fill="#BA68C8"/>
<path opacity="0.9" d="M295.444 472.859C293.521 473.2 293.862 482.522 293.704 491.892C293.521 501.968 290.965 506.373 290.71 514.624C290.442 524.08 291.343 528.156 295.176 533.523C299.01 538.89 311.095 543.185 315.987 534.557C319.967 527.511 319.419 520.21 318.056 510.925C316.657 501.36 315.622 494.642 315.257 487.304C314.928 480.295 314.734 473.48 312.993 472.872V476.242C312.993 477.033 313.152 480.83 312.068 480.964C311.896 480.098 311.802 479.218 311.788 478.336C311.827 477.536 311.557 476.752 311.034 476.145C310.39 475.657 309.603 475.396 308.795 475.403C306.866 475.2 304.929 475.094 302.989 475.086C302.016 475.056 301.042 475.117 300.081 475.269C299.243 475.335 298.421 475.536 297.647 475.865C297.42 475.958 297.217 476.099 297.05 476.279C296.891 476.459 296.771 476.671 296.697 476.9C296.637 477.254 296.637 477.616 296.697 477.97C296.771 478.613 296.771 479.262 296.697 479.905C296.697 480.197 296.503 480.562 296.223 480.514C295.943 480.465 295.882 480.21 295.845 479.978C295.736 478.859 295.846 478.019 295.699 476.717V474.66C295.736 474.052 295.456 473.456 295.444 472.859Z" fill="white"/>
<path d="M290.868 511.935C290.868 513.285 290.564 522.303 293.144 523.653C295.724 525.004 296.673 517.995 296.673 517.995C296.673 517.995 302.649 515.5 311.983 518.506C311.667 520.003 313.565 524.59 315.878 523.374C318.19 522.157 318.141 511.825 318.141 511.691C319.419 520.563 319.821 527.657 315.963 534.484C311.095 543.124 298.925 538.755 295.152 533.462C291.379 528.168 290.418 524.019 290.685 514.563C290.746 513.687 290.868 512.786 290.868 511.935Z" fill="#BA68C8"/>
<path opacity="0.8" d="M290.868 511.935C290.868 513.285 290.564 522.303 293.144 523.653C295.724 525.004 296.673 517.995 296.673 517.995C296.673 517.995 302.649 515.5 311.983 518.506C311.667 520.003 313.565 524.59 315.878 523.374C318.19 522.157 318.141 511.825 318.141 511.691C319.419 520.563 319.821 527.657 315.963 534.484C311.095 543.124 298.925 538.755 295.152 533.462C291.379 528.168 290.418 524.019 290.685 514.563C290.746 513.687 290.868 512.786 290.868 511.935Z" fill="white"/>
<path d="M297.476 518.518C297.768 521.889 294.324 521.086 293.703 516.34C293.083 511.594 294.555 500.07 293.703 491.892C293.886 482.522 293.521 473.2 295.444 472.859V473.2L295.663 477.922C295.647 478.597 295.68 479.272 295.76 479.942C296.405 486.83 296.758 500.179 296.807 506.519C296.805 510.528 297.028 514.534 297.476 518.518Z" fill="#6EDCDF"/>
<path d="M310.961 518.518C311.395 514.537 311.61 510.536 311.606 506.531C311.606 500.228 312.007 487.061 312.64 480.136C312.885 478.85 312.979 477.539 312.92 476.23V473.078C312.932 473.01 312.932 472.94 312.92 472.871C314.198 473.322 314.648 477.045 314.928 481.718C314.928 484.428 314.839 487.819 314.661 491.892C313.809 500.07 315.293 511.679 314.661 516.413C314.028 521.147 310.657 521.889 310.961 518.518Z" fill="#6EDCDF"/>
<path d="M312.214 518.749H311.947C307.094 517.07 301.818 517.07 296.965 518.749C296.878 518.807 296.777 518.84 296.673 518.847C296.572 518.864 296.469 518.864 296.369 518.847C296.273 518.813 296.186 518.759 296.113 518.688C296.039 518.616 295.981 518.529 295.943 518.433C295.925 518.332 295.925 518.229 295.943 518.129C295.952 517.972 296.011 517.822 296.112 517.701C296.213 517.581 296.35 517.496 296.503 517.459C301.657 515.595 307.296 515.565 312.47 517.374C312.562 517.402 312.646 517.452 312.713 517.52C312.78 517.587 312.833 517.665 312.872 517.751C312.908 517.838 312.927 517.931 312.927 518.025C312.927 518.119 312.908 518.212 312.872 518.299C312.823 518.43 312.744 518.547 312.64 518.64C312.513 518.718 312.364 518.757 312.214 518.749Z" fill="#FAFAFA"/>
<path d="M313.103 511.302H312.847C307.383 509.598 301.529 509.598 296.065 511.302C295.974 511.35 295.875 511.379 295.773 511.387C295.672 511.404 295.569 511.404 295.468 511.387C295.374 511.345 295.288 511.287 295.213 511.217C295.144 511.138 295.091 511.047 295.054 510.949C295.031 510.849 295.031 510.745 295.054 510.645C295.061 510.54 295.094 510.44 295.152 510.353C295.2 510.263 295.266 510.184 295.347 510.121C295.435 510.061 295.534 510.02 295.639 510C301.407 508.162 307.603 508.162 313.371 510C313.46 510.03 313.543 510.078 313.614 510.141C313.685 510.203 313.743 510.28 313.784 510.365C313.852 510.541 313.852 510.736 313.784 510.912C313.734 511.045 313.64 511.157 313.517 511.229C313.39 511.296 313.245 511.322 313.103 511.302Z" fill="#FAFAFA"/>
<path d="M295.833 504.232C295.671 504.231 295.515 504.17 295.395 504.061C295.271 503.958 295.186 503.817 295.152 503.66C295.098 503.51 295.098 503.347 295.152 503.197C295.218 503.049 295.334 502.928 295.48 502.856C303.829 499.072 312.799 502.589 313.164 502.747C313.254 502.784 313.337 502.837 313.407 502.905C313.473 502.967 313.527 503.042 313.565 503.124C313.603 503.213 313.623 503.308 313.626 503.404C313.645 503.496 313.645 503.591 313.626 503.684C313.544 503.855 313.401 503.989 313.225 504.061C313.138 504.098 313.045 504.116 312.951 504.116C312.857 504.116 312.764 504.098 312.677 504.061C312.677 504.061 303.89 500.617 296.125 504.158C296.033 504.199 295.934 504.224 295.833 504.232Z" fill="#FAFAFA"/>
<path d="M295.736 497.636C295.599 497.635 295.464 497.598 295.347 497.526C295.237 497.449 295.149 497.344 295.091 497.222C295.048 497.139 295.024 497.048 295.018 496.954C294.994 496.863 294.994 496.766 295.018 496.675C295.05 496.584 295.1 496.502 295.164 496.431C295.223 496.358 295.298 496.3 295.383 496.261C298.212 494.971 301.28 494.287 304.389 494.253C307.492 494.23 310.566 494.847 313.42 496.066C313.592 496.153 313.726 496.301 313.797 496.48C313.864 496.656 313.864 496.851 313.797 497.027C313.757 497.114 313.7 497.191 313.629 497.254C313.557 497.317 313.474 497.364 313.383 497.393C313.207 497.46 313.012 497.46 312.835 497.393C310.169 496.273 307.302 495.714 304.41 495.749C301.519 495.785 298.666 496.415 296.028 497.599C295.934 497.628 295.835 497.641 295.736 497.636Z" fill="#FAFAFA"/>
<path d="M295.517 490.225C295.383 490.223 295.252 490.185 295.138 490.114C295.025 490.044 294.932 489.943 294.872 489.823C294.8 489.648 294.8 489.451 294.872 489.275C294.938 489.097 295.068 488.95 295.237 488.862C303.756 484.639 313.042 488.667 313.42 488.862C313.506 488.899 313.585 488.953 313.651 489.02C313.711 489.089 313.76 489.167 313.797 489.251C313.814 489.344 313.814 489.439 313.797 489.531C313.796 489.624 313.775 489.715 313.736 489.799C313.698 489.885 313.644 489.963 313.578 490.03C313.507 490.094 313.424 490.144 313.334 490.176C313.248 490.212 313.155 490.231 313.061 490.231C312.966 490.231 312.873 490.212 312.787 490.176C312.689 490.176 303.781 486.233 295.821 490.176C295.726 490.22 295.621 490.237 295.517 490.225Z" fill="#EBEBEB"/>
<path d="M307.273 186.372C301.99 198.507 298.56 211.367 297.099 224.522C293.448 272.371 295.395 341.079 295.395 341.079C294.969 346.093 291.805 357.446 289.675 379.448C287.156 405.454 290.32 493.583 290.32 493.583C290.32 493.583 305.874 502.856 317.983 492.306C317.983 492.306 332.052 371.161 335.313 345.302C338.161 322.74 346.12 273.917 346.12 273.917L355.431 346.117C355.431 346.117 354.554 366.427 355.175 379.546C355.869 394.806 360.141 472.567 360.141 472.567C360.141 472.567 381.511 479.796 391.065 469.525C391.065 469.525 393.329 361.669 393.657 343.306C394.29 307.273 393.657 241.62 387.816 203.834L307.273 186.372Z" fill="#26999D"/>
<path opacity="0.2" d="M346.121 273.905L349.455 250.929C349.455 250.929 368.867 248.337 377.654 240.086C375.125 244.005 371.774 247.327 367.832 249.822C363.88 252.317 359.425 253.909 354.786 254.483L351.366 275.268L354.311 337.416L346.121 273.905Z" fill="black"/>
<path d="M386.343 151.799C385.503 161.242 385.297 179.691 385.297 179.691C388.716 203.822 391.455 227.382 391.455 227.382C355.406 246.621 301.018 231.033 294.166 223.123C297.549 199.49 305.022 184.777 309.914 171.489L300.896 131.33C300.896 131.33 316.425 118.346 315.074 92.1088L336.36 89.894L356.684 90.4782L371.13 91.5004C378.385 98.529 384.734 106.435 390.031 115.036C396.956 126.341 397.223 140.408 386.343 151.799Z" fill="#6EDCDF"/>
<path opacity="0.1" d="M361.881 150.314C361.881 150.314 352.437 158.626 340.936 155.34C337.703 154.538 334.731 152.916 332.308 150.631C329.884 148.346 328.09 145.475 327.099 142.295C327.099 142.295 326.721 155.279 341.277 158.772C345.171 159.753 349.277 159.455 352.988 157.92C356.699 156.386 359.817 153.698 361.881 150.253V150.314Z" fill="black"/>
<path d="M331.882 77.1285C331.882 73.4778 326.807 66.018 322.145 57.5848C317.484 49.1515 312.519 35.6802 322.145 22.939C331.772 10.1978 353.569 2.66508 366.384 8.76185C379.199 14.8586 382.789 29.4495 382.789 29.4495L331.882 77.1285Z" fill="#37474F"/>
<path d="M318.093 47.1313C318.105 47.1 318.105 47.0653 318.093 47.034C317.634 46.2708 316.904 45.7098 316.048 45.4641C315.084 45.104 314.059 44.9345 313.03 44.9652C311.813 44.9652 309.513 45.8414 309.586 47.3991C309.671 49.2609 312.738 49.4678 314.064 49.3948C315.21 49.3835 316.349 49.2114 317.448 48.8837C317.463 51.0797 317.151 53.2657 316.523 55.3699C316.125 56.3133 315.508 57.1478 314.722 57.8037C314.194 58.2183 313.577 58.5056 312.92 58.6434C312.264 58.8015 311.58 58.8015 310.924 58.6434C310.182 58.5217 310.498 59.5804 310.924 59.7386C312.156 60.0771 313.467 59.9783 314.634 59.4592C315.801 58.94 316.753 58.0325 317.326 56.891C318.896 54.0921 318.312 50.8064 318.993 47.8493C319.151 47.4599 318.567 47.0705 318.093 47.1313ZM312.093 48.1049C311.725 48.0961 311.371 47.9582 311.095 47.7154C310.961 47.4721 311.18 47.3747 311.314 47.2165C311.883 46.7783 312.552 46.4896 313.261 46.3768C313.97 46.2661 314.696 46.3416 315.367 46.5959C315.75 46.6724 316.125 46.7865 316.486 46.9366C316.683 47.0259 316.874 47.1275 317.058 47.2408L317.289 47.3625H317.435C316.454 47.8428 315.376 48.0964 314.283 48.1049C313.556 48.2022 312.82 48.2022 312.093 48.1049Z" fill="#BA68C8"/>
<path d="M374.112 18.1199C378.834 20.5537 385.637 25.8108 384.603 50.3074C383.775 69.4496 376.729 78.2966 373.577 79.9395C370.425 81.5823 366.275 82.0204 359.873 81.3389V92.2182C359.873 92.2182 367.236 111.786 362.77 121.729C356.848 118.527 351.308 114.665 346.255 110.216C335.423 99.7875 332.174 94.9198 332.174 94.9198L331.784 65.9449C331.784 65.9449 327.525 69.0967 320.831 63.937C315.33 59.6777 313.115 52.1085 316.925 47.7397C317.915 46.6315 319.172 45.7939 320.576 45.3059C321.986 44.8324 323.496 44.7318 324.957 45.0138C326.55 45.3688 328.041 46.0849 329.314 47.1069C330.594 48.1222 331.619 49.4223 332.308 50.9037C332.612 51.4879 333.062 52.1207 333.707 52.1207C333.955 52.1275 334.2 52.0775 334.425 51.9746C334.647 51.8749 334.843 51.7249 334.997 51.5365C335.299 51.1465 335.518 50.6994 335.642 50.2223C337.018 46.1577 336.372 41.9107 337.334 37.761C338.08 34.5688 339.485 31.5678 341.46 28.9505C346.145 22.931 352.963 18.9406 360.506 17.8035C365.026 17.1269 369.629 17.234 374.112 18.1199Z" fill="#B16668"/>
<path d="M382.96 29.8754C376.534 25.9174 368.935 24.305 361.455 25.3119C353.315 26.6276 345.533 29.6106 338.6 34.0737C339.384 32.2801 340.363 30.5783 341.52 28.9992C346.222 22.9884 353.045 19.0044 360.591 17.8643C365.073 17.1663 369.642 17.2362 374.1 18.0712C377.082 19.5802 380.83 22.2453 382.96 29.8754Z" fill="#B16668"/>
<path d="M355.224 44.7826C355.311 45.5219 355.105 46.2656 354.65 46.8547C354.195 47.4438 353.527 47.8314 352.79 47.9345C352.432 47.9834 352.067 47.9585 351.719 47.8615C351.373 47.77 351.05 47.6082 350.769 47.3863C350.489 47.1644 350.257 46.887 350.088 46.5715C349.916 46.2552 349.808 45.9077 349.772 45.5493C349.713 44.818 349.94 44.0924 350.406 43.5251C350.871 42.9577 351.538 42.5928 352.267 42.507C352.608 42.4404 352.959 42.4404 353.301 42.507C353.638 42.5996 353.955 42.7521 354.238 42.9573C354.515 43.1687 354.747 43.4335 354.92 43.7361C355.095 44.0592 355.199 44.416 355.224 44.7826Z" fill="black"/>
<path d="M356.027 63.1217L365.666 65.5555C365.462 66.5248 364.967 67.4088 364.247 68.0894C363.527 68.77 362.617 69.2149 361.638 69.3645C360.985 69.4653 360.318 69.4322 359.678 69.2671C358.389 68.9044 357.289 68.0576 356.608 66.9034C355.928 65.7493 355.72 64.377 356.027 63.073V63.1217Z" fill="#9A4A4D"/>
<path d="M379.99 38.3575L374.392 35.5829C374.553 35.2102 374.789 34.8746 375.086 34.5972C375.386 34.3205 375.737 34.1055 376.12 33.9644C376.503 33.8219 376.91 33.7581 377.318 33.7769C377.726 33.7957 378.126 33.8967 378.493 34.0739C379.243 34.4546 379.818 35.1078 380.1 35.8993C380.376 36.703 380.337 37.5814 379.99 38.3575Z" fill="black"/>
<path d="M352.838 36.2277L347.204 38.8684C347.002 38.4928 346.885 38.0772 346.863 37.6515C346.835 37.2403 346.885 36.8276 347.009 36.4345C347.141 36.0529 347.348 35.7013 347.617 35.4002C347.892 35.0995 348.223 34.8556 348.591 34.6822C349.356 34.3299 350.228 34.2863 351.025 34.5605C351.422 34.7054 351.787 34.9273 352.098 35.2134C352.409 35.4995 352.661 35.8442 352.838 36.2277Z" fill="black"/>
<path d="M377.495 43.5049C377.558 44.2275 377.34 44.9467 376.887 45.5131C376.434 46.0796 375.78 46.4498 375.061 46.5472C374.707 46.5961 374.347 46.5712 374.002 46.4742C373.661 46.3806 373.343 46.2192 373.065 45.9996C372.786 45.7796 372.554 45.5058 372.382 45.1943C372.211 44.8828 372.104 44.54 372.067 44.1863C372.001 43.6403 372.099 43.0871 372.348 42.5968C372.598 42.1065 372.987 41.7013 373.467 41.4326C373.947 41.164 374.496 41.044 375.044 41.088C375.592 41.1319 376.115 41.3378 376.546 41.6795C376.827 41.9013 377.059 42.1789 377.228 42.4948C377.383 42.8103 377.474 43.1537 377.495 43.5049Z" fill="black"/>
<path d="M363.463 42.9573L364.826 58.6312L372.944 55.5524L363.463 42.9573Z" fill="#9A4A4D"/>
<path d="M359.8 81.3391C353.058 80.3534 338.77 76.7392 336.299 71.4456C337.317 74.4709 339.232 77.115 341.788 79.027C346.096 82.2883 359.8 85.1968 359.8 85.1968V81.3391Z" fill="#9A4A4D"/>
<path d="M382.96 29.8755C382.96 29.8755 379.467 24.302 363.488 25.7745C354.685 26.6923 346.191 29.5251 338.599 34.0739C333.871 36.95 329.886 40.8977 326.965 45.5981C326.318 45.3249 325.639 45.1328 324.945 45.0262C323.475 44.7448 321.958 44.8454 320.539 45.3182C319.13 45.7968 317.871 46.6359 316.888 47.7521L316.803 47.8494C313.894 42.5072 311.728 37.0918 312.945 29.1819C314.649 18.047 325.687 10.2831 337.954 5.14765C352.474 -1.02214 368.38 0.547689 374.745 6.55928C381.11 12.5709 382.79 29.3157 382.96 29.8755Z" fill="#6EDCDF"/>
<path d="M315.306 230.205C310.9 227.286 306.933 223.754 303.525 219.715C306.355 220.051 309.214 220.051 312.044 219.715C315.951 218.9 316.766 217.281 316.523 215.845C316.377 214.738 313.663 215.079 309.367 213.752C304.481 212.061 299.437 210.867 294.312 210.187C291.816 209.6 289.624 208.114 288.154 206.013C286.791 204.321 278.795 190.266 271.736 175.322L304.353 134.969C312.507 125.854 322.243 109.487 312.47 92.7295C290.053 97.4511 290.223 96.9035 245.4 163.311C237.66 174.762 238.293 180.153 265.87 214.3C271.435 221.222 277.417 227.798 283.785 233.99C299.716 248.836 311.229 249.907 317.861 245.891C326.965 240.281 324.02 235.937 315.306 230.205Z" fill="#B16668"/>
<path d="M315.001 92.1089C302.734 92.6687 293.691 94.4089 285.075 104.947C275.825 116.216 254.418 147.15 254.418 147.15C254.418 147.15 260.15 164.844 283.213 170.771L312.263 133.496C312.263 133.496 322.863 112.687 315.001 92.1089Z" fill="#26999D"/>
<path d="M134.919 105.738C123.893 106.043 120.741 110.46 114.157 119.915C107.572 129.371 84.9481 165.307 84.9481 165.307L52.9404 177.598L57.2 196.277C57.2 196.277 84.2665 190.886 98.1649 188.051C99.9721 187.804 101.697 187.142 103.205 186.115C104.713 185.089 105.962 183.727 106.854 182.137C108.631 179.435 126.424 151.47 126.424 151.47L134.919 105.738Z" fill="#E6E6E6"/>
<path d="M143.365 106.042C132.947 103.438 128.347 109.182 124.891 115.607C119.341 125.781 116.006 146.566 115.532 184.558C115.228 208.994 106.721 238.529 105.211 261.748C102.911 296.527 101.84 323.567 101.84 323.567C122.419 320.906 143.159 319.687 163.908 319.916L143.365 106.042Z" fill="#E0E0E0"/>
<path d="M203.388 460.337C203.388 460.337 209.68 417.575 207.04 392.506C204.812 371.003 201.636 362.01 201.198 357.118C201.198 357.118 197.547 306.713 198.569 263.877C199.032 243.616 198.009 221.285 183.575 197.36L183.052 196.423C181.835 204.297 169.665 209.335 158.919 210.6C148.55 211.752 135.633 209.696 120.169 204.431C116.724 224.705 112.866 263.342 108.814 305.435C106.879 326.025 107.232 343.354 106.854 356.546C106.404 374.508 108.071 444.846 108.071 444.846V447.827C107.962 451.101 107.183 453.389 104.932 458.585C102.057 465.304 98.0469 471.479 93.0777 476.839C91.5078 478.421 80.9075 487.097 79.4714 489.008C74.8589 494.046 83.9622 497.259 90.8262 496.589C98.1284 495.859 109.349 493.437 112.733 489.203C114.96 486.343 116.883 476.157 119.146 473.261C126.826 463.525 129.966 459.303 130.173 456.127C130.465 450.334 128.603 447.998 127.958 444.712C128.761 437.934 142.562 402.387 143.475 382.564C143.913 373.108 141.892 356.351 141.892 356.351L153.819 287.376C156.509 306.749 161.693 350.376 163.482 364.322C166.05 383.464 175.494 415.822 181.446 441.256C183.685 450.809 184.792 455.068 185.34 461.299L185.486 463.538C185.486 466.361 185.766 496.492 186.703 502.917C188.59 516.303 200.431 514.989 202.683 504.317C204.581 495.251 203.51 466.945 203.571 463.465L203.388 460.337Z" fill="#FFA8A7"/>
<path d="M203.729 460.142C207.051 460.313 204.435 473.103 205.019 481.426C205.652 490.322 208.342 496.906 208.926 504.195C209.607 512.543 208.755 516.011 205.542 522.741C203.108 527.986 191.157 534.91 186.983 527.134C182.808 519.358 182.115 510.669 182.93 502.406C183.733 493.888 184.512 487.633 184.853 481.122C185.182 475.39 181.202 461.785 185.571 461.104L185.693 463.343C187.141 466.495 201.818 469.111 203.778 463.209L203.729 460.142Z" fill="#37474F"/>
<path d="M130.793 462.868C131.682 467.042 130.246 478.384 130.246 478.384C130.246 478.384 128.323 482.242 121.836 484.688L119.487 468.77L130.793 462.868Z" fill="#263238"/>
<path d="M121.836 484.639L107.877 479.528L104.895 466.896L120.473 475.415L121.836 484.639Z" fill="black"/>
<path d="M108.376 447.632V444.663C106.441 445.527 101.719 460.824 95.6459 471.216C90.1328 480.672 79.6299 485.734 76.1736 489.835C71.4515 495.311 79.9707 502.856 94.0516 500.325C101.025 499.108 111.698 494.983 114.741 490.407C117.784 485.832 118.988 477.252 121.435 473.881C123.881 470.51 129.54 466.738 130.879 462.856C131.909 459.333 132.026 455.606 131.219 452.025C130.234 448.375 129.418 444.152 128.189 444.444L128.019 447.146C127.021 449.02 123.577 451.137 116.506 451.271C113.037 451.356 109.812 450.736 108.376 447.632Z" fill="#37474F"/>
<path d="M145.081 390.084C145.888 379.234 145.48 368.328 143.864 357.568L154.038 289.846C154.038 289.846 160.975 354.416 162.131 364.371C163.287 374.325 181.896 482.254 181.896 482.254C191.34 487.9 203.62 486.099 211.555 481.901C211.555 438.262 210.191 394.538 208.621 382.454C207.236 374.201 205.346 366.041 202.962 358.018C202.962 358.018 202.025 294.361 202.025 270.157C202.025 245.952 200.273 229.828 195.733 218.961C192.171 211.065 187.954 203.481 183.125 196.29C183.125 196.29 179.596 208.215 151.628 208.252C123.661 208.288 120.558 201.169 120.558 201.169C120.558 201.169 112.367 229.791 109.605 272.968C107.451 307.881 106.939 323.701 106.282 339.217C105.71 352.457 105.369 367.729 105.065 394.465C104.834 414.617 101.925 459.035 101.925 459.035C101.925 459.035 115.58 466.191 138.144 458.037C138.059 457.964 143.681 407.474 145.081 390.084Z" fill="#455A64"/>
<path d="M154.075 289.773L148.549 248.824C140.432 247.982 132.862 244.337 127.142 238.517C127.142 238.517 130.294 248.435 143.401 254.008L150.813 289.968L145.446 347.626L154.075 289.773Z" fill="#37474F"/>
<path d="M167.17 108.89L180.338 110.29C189.101 112.431 193.032 116.289 193.932 124.041C195.551 132.381 195.393 140.968 193.47 149.243C190.707 160.196 183.332 186.846 183.332 186.846C183.332 186.846 192.886 210.868 197.413 223.074C166.33 243.348 127.958 235.34 115.069 223.074C116.165 211.464 120.266 200.67 121.154 190.327C121.154 190.327 120.473 174.166 119.195 167.205C109.361 156.472 110.676 146.201 115.033 137.914C123.187 122.641 135.515 109.207 139.458 109.219L167.17 108.89Z" fill="#6EDCDF"/>
<path d="M143.219 99.6294C139.312 99.6294 138.874 100.287 135.503 104.777C133.507 107.454 120.899 128.3 120.899 128.3C120.899 128.3 130.964 115.084 138.534 111.081C140.006 110.216 141.603 109.584 143.268 109.207L143.219 99.6294Z" fill="#EBEBEB"/>
<path d="M167.949 108.89C167.949 108.89 157.093 137.427 154.562 156.8C152.03 176.174 160.647 234.683 161.864 269.378C162.825 294.58 165.223 331.003 165.223 331.003C172.93 331.759 180.702 331.514 188.346 330.273C201.101 327.839 205.056 325.77 212.358 321.012C212.358 321.012 206.054 257.586 202.902 232.931C199.993 209.724 187.506 186.846 187.506 186.846L202.512 124.783C202.512 124.783 201.77 114.318 191.912 111.397C182.553 108.586 167.949 108.89 167.949 108.89Z" fill="#FAFAFA"/>
<path d="M187.105 166.901C187.105 166.901 185.072 159.514 182.237 146.895C179.401 134.275 179.876 126.974 180.837 121.461L197.157 145.3L187.555 186.822C194.092 199.335 198.918 212.671 201.904 226.469C192.095 198.699 181.336 190.375 181.336 190.375L187.105 166.901Z" fill="#F5F5F5"/>
<path d="M172.001 144.011C172.001 142.794 172.111 140.214 172.318 136.952C173.34 120.95 173.815 106.529 168.411 105.312L167.949 107.552C171.892 108.403 170.577 129.03 170.091 136.819C169.872 140.153 169.701 142.782 169.762 144.12L172.001 144.011Z" fill="#2FA9AD"/>
<path d="M201.636 273.637C203.729 269.646 203.693 266.786 206.954 263.172C208.355 261.692 209.334 259.864 209.79 257.878C210.474 254.681 210.735 251.408 210.569 248.143L229.25 248.422C229.384 254.629 230.224 263.549 229.055 270.169C226.086 286.914 222.763 294.045 215.668 295.992C204.435 299.144 201.417 294.422 205.007 285.94C206.565 282.429 207.626 278.719 208.159 274.915C206.991 276.423 205.624 277.766 204.094 278.906C203.314 279.539 202.325 279.856 201.323 279.795C200.32 279.734 199.377 279.3 198.679 278.578C198.18 277.896 200.017 276.74 201.636 273.637Z" fill="#FFA8A7"/>
<path d="M183.417 109.705C183.417 109.705 195.49 108.951 202.561 114.731C209.632 120.512 214.013 136.636 219.198 152.833C224.382 169.03 229.031 184.716 230.735 196.046C232.159 205.489 230.309 255.675 230.309 255.675C222.897 256.372 215.434 255.056 208.707 251.866L203.729 198.358L183.502 143.463C179.757 132.527 179.727 120.66 183.417 109.705Z" fill="#F0F0F0"/>
<path d="M33.5534 148.367L93.4187 169.481L109.885 240.707L108.546 242.168L51.6383 220.884L32.166 149.779L33.5534 148.367Z" fill="#26999D"/>
<path opacity="0.35" d="M92.0796 170.905L108.546 242.167L109.885 240.744L93.4183 169.481L92.0796 170.905Z" fill="black"/>
<path opacity="0.25" d="M31.6426 150.436L91.5322 171.586L107.998 242.812L51.1149 221.541L31.6426 150.436Z" fill="black"/>
<g opacity="0.2">
<path opacity="0.2" d="M60.5347 206.402C59.987 207.789 55.3989 210.88 48.7539 210.333L47.6343 206.219L60.5347 206.402Z" fill="black"/>
</g>
<g opacity="0.1">
<path opacity="0.1" d="M50.2385 164.382L49.7517 161.948C49.4839 160.621 52.9889 161.315 57.6258 163.53L68.4329 166.803C73.0454 168.97 77.3902 170.6 77.658 171.902L78.1691 174.336L50.2385 164.382Z" fill="black"/>
</g>
<path d="M46.685 153.576C46.5147 152.736 47.9021 152.918 49.8371 153.417L53.2935 154.634C53.2935 154.634 51.8696 151.166 60.0358 153.417C69.0174 155.851 69.1999 160.329 69.1999 160.329C70.609 160.921 72.0516 161.429 73.5204 161.851C76.4899 162.836 76.8307 163.433 77.0741 164.284L77.5244 165.854L46.9528 155.036C46.9528 155.036 46.8676 154.391 46.685 153.576Z" fill="#37474F"/>
<path d="M49.8977 158.2C52.7333 159.417 53.9017 160.11 54.3276 162.143C54.8023 164.455 54.9118 165.428 54.9118 165.428L70.8061 171.732C70.8061 171.732 69.942 168.312 69.7351 167.169C69.5282 166.025 71.6215 165.952 74.3598 167.29L73.7148 164.443L48.9971 155.255L49.8977 158.2Z" fill="#37474F"/>
<path d="M49.3503 164.491L48.8634 162.118C48.5957 160.792 52.1129 161.486 56.7376 163.688L67.5447 166.95C72.1451 169.128 76.5142 170.746 76.7819 172.073L77.2687 174.507L49.3503 164.491Z" fill="#37474F"/>
<path d="M38.8594 174.141C38.8594 174.141 40.9892 182.027 41.5369 183.938C42.0845 185.848 51.9059 190.436 56.8226 191.045C66.2667 192.261 67.2647 194.196 65.0132 200.926C62.9321 207.011 56.8226 209.384 48.34 208.386C45.6885 207.863 43.2215 206.65 41.1876 204.871C39.1536 203.091 37.6244 200.807 36.754 198.249C33.9913 190.375 35.4761 182.003 34.393 177.403C33.3098 172.803 36.5106 171.428 38.8594 174.141Z" fill="#FFA8A7"/>
<path d="M190.05 39.0023L181.677 45.8779C181.219 45.3566 180.871 44.7481 180.654 44.089C180.448 43.4244 180.373 42.7257 180.435 42.0324C180.509 41.3422 180.716 40.6728 181.044 40.061C181.381 39.4535 181.836 38.9197 182.382 38.4912C183.493 37.5972 184.904 37.1618 186.326 37.2743C187.743 37.3506 189.076 37.9694 190.05 39.0023Z" fill="#455A64"/>
<path d="M168.071 100.664C168.071 95.3944 180.363 87.4844 186.715 76.3253C193.068 65.1661 189.868 46.9853 181.202 44.1742C181.202 44.1742 181.032 27.5754 158.627 23.1701C136.221 18.7649 129.199 13.812 125.232 13.1062C121.264 12.4004 120.51 26.4923 125.718 30.2039C121.965 28.745 118.534 26.5664 115.617 23.7907C112.356 20.6389 111.065 37.043 118.051 42.8112C118.051 42.8112 112.222 46.2308 112.94 54.8588C113.081 57.9992 114.246 61.0072 116.257 63.424C118.267 65.8408 121.013 67.5339 124.075 68.2449L168.071 100.664Z" fill="#455A64"/>
<path d="M129.869 38.479C124.465 40.8277 119.329 49.0784 119.402 72.1877C119.402 91.768 125.487 96.733 128.505 98.1812C131.524 99.6293 137.463 98.8992 143.219 98.0108V109.267C143.219 109.267 138.923 113.502 140.42 116.179C141.917 118.857 147.54 121.047 156.168 118.37C166.014 115.218 168.265 108.72 168.265 108.72L168.46 84.0771C168.46 84.0771 171.783 87.5575 177.6 82.5072C182.468 78.2967 184.148 71.0682 180.521 67.101C176.894 63.1338 172.269 62.8174 168.095 67.2592L165.077 65.7137C159.734 65.0931 151.811 64.1439 146.079 61.2719C131.268 53.5445 129.698 45.3424 129.869 38.479Z" fill="#FFA8A7"/>
<path d="M168.07 63.9492V74.8285C167.369 74.8564 166.669 74.7404 166.014 74.4878C165.364 74.2243 164.773 73.8356 164.273 73.3439C163.775 72.8498 163.385 72.2571 163.129 71.6037C162.873 70.9536 162.753 70.2577 162.776 69.5592C162.777 68.1255 163.325 66.7461 164.31 65.7033C165.294 64.6605 166.639 64.033 168.07 63.9492Z" fill="#455A64"/>
<path d="M129.345 65.4826C129.363 65.8296 129.314 66.1768 129.199 66.5048C129.089 66.8305 128.91 67.1292 128.676 67.381C128.441 67.6424 128.155 67.8535 127.836 68.0016C127.524 68.1507 127.184 68.2336 126.838 68.245C126.303 68.2883 125.767 68.165 125.305 67.8921C124.842 67.6249 124.47 67.2269 124.234 66.7482C124.059 66.386 123.968 65.9893 123.966 65.5872C123.965 65.1851 124.054 64.7879 124.227 64.4247C124.399 64.0616 124.651 63.7418 124.964 63.4888C125.276 63.2358 125.642 63.0562 126.033 62.963C126.424 62.8699 126.831 62.8657 127.224 62.9506C127.617 63.0356 127.986 63.2076 128.304 63.454C128.622 63.7004 128.88 64.0149 129.061 64.3744C129.241 64.7339 129.338 65.1292 129.345 65.5312V65.4826Z" fill="#263238"/>
<path d="M150.071 66.6265C150.096 67.0017 150.046 67.3781 149.925 67.7339C149.801 68.0833 149.611 68.4056 149.365 68.6831C149.117 68.9645 148.814 69.1926 148.475 69.3536C148.136 69.5147 147.768 69.6053 147.393 69.6201C146.818 69.6628 146.243 69.5326 145.742 69.2464C145.241 68.9603 144.837 68.531 144.582 68.0138C144.327 67.4933 144.23 66.9095 144.302 66.3344C144.383 65.7632 144.634 65.2293 145.02 64.8011C145.402 64.3672 145.907 64.0613 146.469 63.9249C147.027 63.7763 147.619 63.8061 148.16 64.0101C148.705 64.2032 149.18 64.555 149.523 65.0202C149.863 65.4882 150.054 66.0481 150.071 66.6265Z" fill="#263238"/>
<path d="M145.836 82.6655L137.523 85.2819C137.648 85.8503 137.893 86.3855 138.241 86.8517C138.585 87.3199 139.02 87.7134 139.52 88.0084C140.02 88.3033 140.574 88.4936 141.15 88.5676C141.729 88.6392 142.317 88.5936 142.878 88.4337C144.005 88.0145 144.936 87.1933 145.494 86.1284C146.051 85.0634 146.194 83.83 145.897 82.6655H145.836Z" fill="#F28F8F"/>
<path d="M122.456 60.6393L129.174 57.9864C129.018 57.5346 128.769 57.1202 128.444 56.7695C128.105 56.4033 127.69 56.1165 127.227 55.9298C126.782 55.7353 126.301 55.6359 125.815 55.6377C125.329 55.6411 124.848 55.7447 124.404 55.942C123.541 56.3373 122.859 57.0419 122.492 57.9163C122.124 58.7907 122.099 59.7712 122.42 60.6636L122.456 60.6393Z" fill="#263238"/>
<path d="M135.698 63.353L136.026 79.4042L127.41 77.4815L135.698 63.353Z" fill="#F28F8F"/>
<path d="M143.219 97.9378C149.304 97.232 161.791 93.7516 163.823 88.677C163.012 91.2247 161.456 93.4711 159.357 95.1267C155.572 98.3637 143.207 101.735 143.207 101.735L143.219 97.9378Z" fill="#F28F8F"/>
<path d="M168.35 99.7024C169.92 99.386 171.357 100.068 172.647 102.27C173.937 104.473 176.797 109.109 176.797 109.109C176.797 109.109 178.257 124.479 176.797 128.3C175.519 131.622 161.462 144.047 161.462 144.047C161.462 144.047 165.113 157.859 165.259 162.386C165.405 166.913 156.545 184.12 155.523 192.919C155.523 192.919 152.748 165.246 154.038 155.304C156.302 137.987 164.42 115.729 168.217 108.659L168.35 99.7024Z" fill="#EBEBEB"/>
<path d="M168.716 194.817C166.67 196.166 164.265 196.865 161.815 196.825L162.01 195.255C163.889 195.284 165.736 194.768 167.328 193.77C165.803 192.567 164.47 191.139 163.373 189.535C161.121 186.043 157.58 162.179 159.722 156.861C161.523 152.456 166.793 142.891 170.748 142.891H170.845C174.862 143.073 179.365 153.186 180.801 157.762C182.517 163.226 176.955 186.712 174.423 190.01C173.183 191.509 171.732 192.821 170.115 193.904C171.625 195.016 173.418 195.678 175.288 195.815V197.397H175.093C172.769 197.145 170.561 196.251 168.716 194.817ZM161.194 157.47C159.211 162.337 162.618 185.459 164.687 188.671C165.826 190.291 167.21 191.724 168.789 192.919C170.47 191.874 171.97 190.563 173.231 189.037C175.592 185.994 180.947 163.262 179.316 158.236C177.381 152.152 173.158 144.582 170.797 144.485C168.436 144.388 163.641 151.543 161.194 157.47Z" fill="#455A64"/>
<path d="M159.624 195.997C159.61 196.302 159.656 196.606 159.76 196.892C159.865 197.179 160.025 197.441 160.233 197.665C160.67 198.092 161.252 198.34 161.864 198.358C162.478 198.369 163.073 198.147 163.531 197.738C163.758 197.533 163.943 197.286 164.074 197.011C164.206 196.735 164.282 196.436 164.298 196.131C164.284 195.527 164.041 194.95 163.617 194.519C163.193 194.088 162.621 193.835 162.017 193.812C161.412 193.789 160.822 193.997 160.366 194.394C159.91 194.791 159.623 195.347 159.563 195.949L159.624 195.997Z" fill="#263238"/>
<path d="M173.072 196.508C173.047 197.123 173.265 197.722 173.681 198.176C173.884 198.403 174.131 198.587 174.407 198.717C174.683 198.847 174.983 198.919 175.287 198.93C175.902 198.956 176.501 198.737 176.955 198.322C177.406 197.905 177.676 197.329 177.709 196.715C177.723 196.103 177.506 195.507 177.101 195.048C176.893 194.826 176.645 194.644 176.37 194.513C176.094 194.39 175.797 194.32 175.494 194.306C175.188 194.283 174.88 194.329 174.594 194.44C174.308 194.538 174.047 194.696 173.827 194.902C173.375 195.318 173.104 195.895 173.072 196.508Z" fill="#263238"/>
<path d="M159.356 167.217L160.671 167.12C160.739 167.132 160.809 167.132 160.878 167.12L161.036 166.998C161.082 166.946 161.116 166.883 161.133 166.816C161.145 166.751 161.145 166.685 161.133 166.621C160.755 163.638 160.891 160.613 161.535 157.677C163.872 151.969 168.691 144.838 170.796 144.935C172.902 145.033 177.101 152.541 178.963 158.407C179.389 159.757 179.243 162.994 178.61 167.363C178.594 167.498 178.63 167.633 178.708 167.743C178.787 167.853 178.904 167.93 179.036 167.96L180.362 168.166C180.431 168.178 180.501 168.178 180.569 168.166C180.636 168.153 180.699 168.124 180.752 168.081C180.803 168.034 180.848 167.981 180.886 167.923C180.913 167.861 180.933 167.795 180.946 167.728C181.664 162.861 181.762 159.465 181.214 157.725C180.24 154.573 175.591 142.781 170.906 142.575C166.22 142.368 160.598 153.746 159.344 156.752C158.651 158.431 158.456 161.79 158.772 166.743C158.754 166.81 158.754 166.882 158.772 166.949C158.801 167.021 158.842 167.087 158.894 167.144C158.945 167.194 159.008 167.232 159.077 167.254C159.171 167.261 159.267 167.248 159.356 167.217Z" fill="#2FA9AD"/>
<path d="M21.5532 59.9213V79.4773L38.4941 69.7419V89.2735L55.4472 79.5381V59.9213L72.4003 50.186V30.557L55.3621 40.3897V20.7729L38.409 30.5083V50.1373L21.5532 59.9213Z" fill="#42B5B6"/>
<path d="M21.5536 79.4772L14.2515 75.291V55.7229L21.5536 59.9213V79.4772Z" fill="#2C9A9D"/>
<path d="M38.4945 30.5568L31.1924 26.3706V45.9509L38.4945 50.1371V30.5568Z" fill="#2C9A9D"/>
<path d="M38.4945 89.2734L31.1924 85.0751V73.8915L38.4945 69.7053V89.2734Z" fill="#2C9A9D"/>
<path d="M38.4945 50.1371L31.1924 45.9509L14.2393 55.6863L21.5414 59.8847L38.4945 50.1371Z" fill="#6BDFDB"/>
<path d="M55.4476 20.7729L48.1455 16.5867L31.2046 26.322L38.5067 30.5083L55.4476 20.7729Z" fill="#6BDFDB"/>
<path d="M72.4006 30.5568L65.0985 26.3706L55.3623 31.9441V40.3895L72.4006 30.5568Z" fill="#6BDFDB"/>
<g opacity="0.5">
<path opacity="0.5" d="M38.4945 50.1371L31.1924 45.9509L14.2393 55.6863L21.5414 59.8847L38.4945 50.1371Z" fill="white"/>
<path opacity="0.5" d="M55.4476 20.7729L48.1455 16.5867L31.2046 26.322L38.5067 30.5083L55.4476 20.7729Z" fill="white"/>
<path opacity="0.5" d="M72.4006 30.5568L65.0985 26.3706L55.3623 31.9441V40.3895L72.4006 30.5568Z" fill="white"/>
</g>
<path d="M640.08 30.2404C640.08 32.1632 641.297 34.0981 643.901 35.5706C646.763 37.0185 649.925 37.7729 653.133 37.7729C656.34 37.7729 659.502 37.0185 662.364 35.5706C664.919 34.0981 666.197 32.1632 666.197 30.2404V13.0697C666.094 9.6708 664.67 6.44587 662.229 4.07833C659.788 1.71079 656.521 0.386719 653.12 0.386719C649.72 0.386719 646.453 1.71079 644.011 4.07833C641.57 6.44587 640.147 9.6708 640.043 13.0697L640.08 30.2404Z" fill="#F5F5F5"/>
<path d="M640.08 52.9117C640.08 56.378 641.457 59.7024 643.908 62.1534C646.36 64.6045 649.684 65.9815 653.151 65.9815C656.617 65.9815 659.942 64.6045 662.393 62.1534C664.845 59.7024 666.222 56.378 666.222 52.9117V30.2405C666.222 32.1632 665.005 34.0981 662.4 35.5706C659.539 37.0185 656.376 37.7729 653.169 37.7729C649.962 37.7729 646.8 37.0185 643.938 35.5706C641.37 34.0981 640.08 32.1754 640.08 30.2405V52.9117Z" fill="#42B5B6"/>
<path opacity="0.4" d="M658.14 59.9455C657.484 59.9498 656.835 59.8215 656.23 59.5683C655.621 59.3221 655.067 58.9582 654.599 58.4974C654.136 58.0289 653.768 57.4751 653.516 56.8667C653.262 56.2618 653.134 55.6119 653.138 54.9562V28.3542C656.359 28.2867 659.543 29.045 662.388 30.5569C662.668 30.7151 662.899 30.8733 663.154 31.0436V54.9562C663.153 55.613 663.022 56.263 662.769 56.8692C662.516 57.4754 662.146 58.0259 661.681 58.4892C661.215 58.9525 660.663 59.3196 660.055 59.5695C659.448 59.8193 658.797 59.9471 658.14 59.9455Z" fill="white"/>
<path d="M640.08 30.2404C640.08 32.1632 641.297 34.0981 643.901 35.5706C646.763 37.0185 649.925 37.7729 653.133 37.7729C656.34 37.7729 659.502 37.0185 662.364 35.5706C664.919 34.0981 666.197 32.1632 666.197 30.2404V13.0697C666.094 9.6708 664.67 6.44587 662.229 4.07833C659.788 1.71079 656.521 0.386719 653.12 0.386719C649.72 0.386719 646.453 1.71079 644.011 4.07833C641.57 6.44587 640.147 9.6708 640.043 13.0697L640.08 30.2404Z" fill="#F5F5F5"/>
<path opacity="0.1" d="M662.388 35.5706C659.524 37.0186 656.36 37.7731 653.151 37.7731C649.942 37.7731 646.778 37.0186 643.914 35.5706C641.37 34.0981 640.08 32.1754 640.08 30.2405V32.1754C640.08 34.1225 641.297 36.033 643.902 37.5177C646.761 38.9731 649.924 39.7318 653.133 39.7318C656.341 39.7318 659.504 38.9731 662.364 37.5177C664.919 36.033 666.197 34.1225 666.197 32.1754V30.2892C666.21 32.1754 664.932 34.0738 662.388 35.5706Z" fill="black"/>
<path d="M660.842 2.51904C658.896 1.11229 656.599 0.269995 654.205 0.0849418C651.81 -0.100111 649.411 0.379258 647.272 1.47024C645.133 2.56123 643.336 4.22149 642.08 6.26815C640.824 8.3148 640.157 10.6684 640.153 13.0698V30.2405C640.153 32.1633 641.37 34.0982 643.974 35.5706C645.15 36.2553 646.41 36.7831 647.723 37.1405V10.7211C647.662 3.20052 657.094 0.438104 660.842 2.51904Z" fill="#E0E0E0"/>
<path d="M658.141 6.16968C657.483 6.16968 656.831 6.29945 656.224 6.55156C655.616 6.80367 655.064 7.17317 654.599 7.6389C654.135 8.10462 653.767 8.65743 653.516 9.26565C653.265 9.87387 653.137 10.5256 653.139 11.1834V37.7853C656.36 37.8485 659.545 37.0861 662.388 35.5705C662.668 35.4123 662.899 35.2541 663.155 35.0959V11.1834C663.152 9.85466 662.622 8.58127 661.683 7.64171C660.743 6.70215 659.47 6.17289 658.141 6.16968Z" fill="white"/>
<path opacity="0.1" d="M654.757 65.8719L655.5 65.7502L656.023 65.6529L656.607 65.4947L657.203 65.3243L657.483 65.2148C658.336 64.8978 659.152 64.4898 659.917 63.9979C660.197 63.8379 660.465 63.659 660.721 63.4624C656.984 65.519 647.565 62.7809 647.565 55.2482V36.9944C646.252 36.6328 644.991 36.1009 643.816 35.4124C641.382 34.0129 640.043 32.0902 640.043 30.1553V52.9117C640.047 56.377 641.425 59.6995 643.875 62.1499C646.326 64.6002 649.649 65.9782 653.114 65.9815H654.331L654.757 65.8719Z" fill="black"/>
</svg>
